<?xml version="1.0" standalone="no"?>
<!DOCTYPE svg PUBLIC "-//W3C//DTD SVG 20010904//EN"
 "http://www.w3.org/TR/2001/REC-SVG-20010904/DTD/svg10.dtd">
<svg version="1.0" xmlns="http://www.w3.org/2000/svg"
 width="900.000000pt" height="900.000000pt" viewBox="0 0 900.000000 900.000000"
 preserveAspectRatio="xMidYMid meet">
<metadata>
Created by potrace 1.11, written by Peter Selinger 2001-2013
</metadata>
<g transform="translate(0.000000,900.000000) scale(0.100000,-0.100000)"
fill="#000000" stroke="none">
<path d="M1389 8086 c-2 -2 -32 -7 -67 -10 -186 -19 -405 -130 -556 -282 -146
-145 -231 -306 -276 -519 -19 -87 -19 -178 -19 -3005 0 -2423 2 -2929 14
-2998 60 -362 313 -665 655 -784 162 -56 -79 -52 3130 -54 3124 -2 2999 -4
3155 43 188 55 382 193 505 357 84 112 157 278 186 421 4 22 9 1361 11 2975 2
3152 5 3000 -47 3165 -94 299 -339 544 -642 644 -158 52 -21 50 -3139 50
-1598 1 -2908 -1 -2910 -3z m5891 -211 c308 -66 526 -268 622 -575 l23 -75 0
-2960 c0 -3242 5 -2979 -55 -3137 -46 -124 -169 -276 -288 -356 -110 -75 -190
-107 -327 -132 -29 -5 -1272 -8 -2990 -7 l-2940 2 -65 21 c-289 95 -464 269
-561 559 l-24 70 -2 2955 c-2 3118 -4 2963 38 3100 59 192 229 386 411 469 82
37 101 44 178 62 71 16 246 17 2995 18 2470 0 2930 -2 2985 -14z"/>
<path d="M2585 6149 c-369 -35 -655 -135 -909 -317 -73 -53 -219 -188 -276
-257 -179 -217 -332 -579 -375 -890 -3 -22 -8 -51 -10 -65 -9 -54 -19 -251
-19 -365 0 -210 20 -403 60 -574 75 -328 220 -609 417 -811 92 -95 131 -127
242 -201 165 -110 410 -208 585 -235 19 -3 42 -7 50 -9 8 -3 31 -7 50 -10 19
-2 53 -8 75 -11 95 -14 481 -13 590 2 227 31 494 108 710 205 61 28 138 62
172 77 l63 27 1 105 c2 239 0 462 -4 466 -9 9 -53 -16 -92 -51 -109 -97 -307
-220 -466 -288 -92 -39 -263 -92 -331 -102 -23 -4 -45 -8 -48 -10 -29 -18
-416 -28 -510 -13 -372 58 -643 229 -827 523 -84 133 -176 375 -199 519 -3 21
-8 48 -10 60 -26 130 -26 516 0 691 50 334 183 615 380 806 160 154 323 241
547 290 87 20 134 23 284 24 224 0 281 -6 455 -50 237 -60 493 -192 715 -369
67 -54 104 -69 106 -43 0 12 0 415 -1 514 l0 51 -87 42 c-253 121 -533 212
-758 245 -22 4 -49 8 -61 10 -112 18 -394 26 -519 14z"/>
<path d="M4706 4278 c1 -997 2 -1816 3 -1820 0 -3 109 -6 241 -6 l240 0 0 616
0 617 68 71 c37 39 119 126 182 193 l114 122 31 -34 c16 -19 44 -49 60 -68 36
-41 195 -220 239 -269 18 -19 65 -73 106 -120 41 -47 84 -95 95 -106 17 -18
70 -78 144 -163 13 -15 127 -141 166 -185 6 -6 41 -47 80 -91 38 -44 74 -85
80 -91 5 -6 106 -119 224 -251 l213 -241 314 -1 c173 -1 314 1 314 4 0 3 -8
13 -17 23 -10 10 -45 49 -78 87 -52 60 -171 194 -256 290 -34 39 -187 212
-265 301 -33 38 -136 155 -229 259 -92 105 -179 204 -194 220 -124 142 -170
194 -196 222 -16 18 -35 38 -40 45 -9 11 -178 203 -276 313 -111 126 -139 159
-139 166 0 4 44 54 99 111 54 57 115 121 136 143 20 22 106 112 190 200 84 88
174 183 200 210 25 28 115 122 198 209 225 236 220 231 387 407 164 173 287
302 358 375 23 24 42 46 42 49 0 3 -132 5 -293 5 l-292 0 -105 -112 c-178
-191 -214 -230 -250 -268 -37 -39 -226 -241 -280 -300 -18 -19 -82 -89 -144
-154 -61 -66 -124 -134 -141 -151 -16 -18 -80 -86 -141 -151 -61 -66 -122
-131 -135 -145 -13 -15 -76 -82 -139 -149 -125 -133 -132 -141 -294 -314 -60
-64 -115 -125 -122 -134 -11 -14 -13 153 -14 931 l0 947 -243 0 -242 0 1
-1812z"/>
</g>
</svg>
